M48
;DRILL file {Pcbnew (2013-07-07 BZR 4022)-stable} date 07/07/2014 23:55:03
;FORMAT={-:-/ absolute / inch / decimal}
FMAT,2
INCH,TZ
T1C0.015
T2C0.040
T3C0.047
%
G90
G05
M72
T1
X7.4488Y-5.7008
X7.4685Y-5.4488
X7.5101Y-5.9471
X7.5157Y-5.4882
X7.5591Y-5.6732
X7.6654Y-5.8425
X7.7047Y-5.626
X7.7087Y-5.7402
X7.7205Y-5.3583
X7.7244Y-5.5079
X7.7598Y-5.7126
X7.8031Y-5.5315
X7.8858Y-5.3583
X7.9016Y-5.5276
X8.0433Y-5.9213
X8.185Y-5.4134
X8.185Y-5.5118
X8.185Y-5.626
X8.185Y-5.689
X8.185Y-5.9213
X8.2362Y-5.3661
X8.2362Y-5.4567
X8.2362Y-5.563
X8.2362Y-5.6496
X8.2874Y-5.5118
X8.4094Y-5.689
X8.4685Y-5.6142
X8.4685Y-5.7598
X8.5Y-5.8504
X8.5394Y-5.7677
X8.5394Y-5.815
X8.5866Y-5.3819
X8.6063Y-5.9213
X8.6535Y-5.6732
X8.6575Y-5.5354
T2
X7.4882Y-5.5496
X7.4882Y-5.6496
X7.4882Y-5.7496
T3
X8.3307Y-5.811G85X8.3622Y-5.811
G05
X8.4882Y-5.4882G85X8.5197Y-5.4882
G05
T0
M30
