G04 (created by PCBNEW (2013-07-07 BZR 4022)-stable) date 07/07/2014 23:54:26*
%MOIN*%
G04 Gerber Fmt 3.4, Leading zero omitted, Abs format*
%FSLAX34Y34*%
G01*
G70*
G90*
G04 APERTURE LIST*
%ADD10C,0.0019685*%
%ADD11R,0.05X0.025*%
%ADD12R,0.08X0.06*%
%ADD13R,0.045X0.025*%
%ADD14R,0.025X0.045*%
%ADD15R,0.016X0.026*%
%ADD16R,0.06X0.06*%
%ADD17C,0.06*%
%ADD18R,0.06X0.08*%
%ADD19R,0.1X0.05*%
%ADD20O,0.141732X0.0787402*%
%ADD21R,0.0236X0.0394*%
%ADD22C,0.035*%
%ADD23C,0.01*%
%ADD24C,0.02*%
%ADD25C,0.04*%
%ADD26C,0.06*%
G04 APERTURE END LIST*
G54D10*
G54D11*
X81262Y-53620D03*
X81262Y-54120D03*
X81262Y-54620D03*
X81262Y-55120D03*
X83462Y-55120D03*
X83462Y-54620D03*
X83462Y-54120D03*
X83462Y-53620D03*
X81262Y-55746D03*
X81262Y-56246D03*
X81262Y-56746D03*
X81262Y-57246D03*
X83462Y-57246D03*
X83462Y-56746D03*
X83462Y-56246D03*
X83462Y-55746D03*
G54D12*
X79606Y-57933D03*
X79606Y-56633D03*
G54D13*
X80551Y-56284D03*
X80551Y-55684D03*
X80551Y-54118D03*
X80551Y-53518D03*
X80551Y-55181D03*
X80551Y-54581D03*
X80551Y-56747D03*
X80551Y-57347D03*
G54D14*
X78803Y-56456D03*
X78203Y-56456D03*
X78803Y-55826D03*
X78203Y-55826D03*
G54D13*
X76181Y-57307D03*
X76181Y-56707D03*
X76181Y-56205D03*
X76181Y-55605D03*
G54D15*
X75999Y-54376D03*
X76519Y-54376D03*
X76259Y-54376D03*
X76519Y-53576D03*
X75999Y-53576D03*
G54D16*
X74881Y-55496D03*
G54D17*
X74881Y-56496D03*
X74881Y-57496D03*
G54D13*
X77637Y-56481D03*
X77637Y-55881D03*
X78976Y-58518D03*
X78976Y-59118D03*
X79763Y-58518D03*
X79763Y-59118D03*
G54D18*
X80924Y-58267D03*
X82224Y-58267D03*
G54D19*
X73661Y-54996D03*
X73661Y-55996D03*
X73661Y-56996D03*
X73661Y-57996D03*
G54D20*
X85039Y-54881D03*
X83464Y-58110D03*
G54D16*
X86035Y-56165D03*
G54D17*
X86035Y-57165D03*
X86035Y-58165D03*
X87035Y-56165D03*
X87035Y-57165D03*
X87035Y-58165D03*
G54D21*
X78050Y-57856D03*
X78425Y-57024D03*
X78800Y-57856D03*
G54D22*
X86535Y-56732D03*
X77204Y-53582D03*
X78858Y-53582D03*
X76653Y-58425D03*
X84685Y-57598D03*
X85393Y-57677D03*
X79015Y-55275D03*
X78031Y-55314D03*
X85393Y-58149D03*
X75157Y-54881D03*
X85000Y-58503D03*
X75590Y-56732D03*
X74488Y-57007D03*
X77047Y-56259D03*
X74685Y-54488D03*
X77086Y-57401D03*
X77598Y-57125D03*
X81850Y-54133D03*
X81850Y-56259D03*
X84685Y-56141D03*
X86062Y-59212D03*
X86574Y-55354D03*
X85866Y-53818D03*
X82362Y-56496D03*
X82362Y-55629D03*
X82362Y-54566D03*
X81850Y-59212D03*
X82362Y-53661D03*
X80433Y-59212D03*
X75101Y-59471D03*
X77244Y-55078D03*
X81850Y-55118D03*
X82874Y-55118D03*
X84094Y-56889D03*
X81850Y-56889D03*
G54D23*
X86535Y-56732D02*
X87035Y-56232D01*
X87035Y-56165D02*
X87035Y-56232D01*
X76771Y-53582D02*
X76526Y-53582D01*
X77204Y-53582D02*
X76771Y-53582D01*
X76526Y-53582D02*
X76519Y-53576D01*
X78858Y-53582D02*
X77204Y-53582D01*
X76552Y-53543D02*
X76519Y-53576D01*
G54D24*
X74645Y-58110D02*
X74409Y-57874D01*
G54D25*
X77598Y-58110D02*
X77598Y-58149D01*
X75669Y-58110D02*
X77244Y-58110D01*
X77598Y-58110D02*
X77244Y-58110D01*
X77598Y-58149D02*
X77874Y-58425D01*
X74606Y-58110D02*
X74645Y-58110D01*
X74645Y-58110D02*
X75669Y-58110D01*
X75669Y-58110D02*
X75708Y-58149D01*
G54D24*
X74409Y-58110D02*
X74606Y-58110D01*
X74606Y-58110D02*
X74685Y-58110D01*
G54D25*
X79645Y-57874D02*
X79823Y-57933D01*
X80629Y-58110D02*
X80924Y-58267D01*
X80000Y-58110D02*
X80314Y-58110D01*
X80314Y-58110D02*
X80629Y-58110D01*
X79823Y-57933D02*
X80000Y-58110D01*
X76181Y-58425D02*
X74881Y-58425D01*
G54D23*
X78976Y-58518D02*
X79315Y-58518D01*
X79315Y-58518D02*
X79409Y-58425D01*
X79645Y-57874D02*
X79606Y-58228D01*
X79606Y-58228D02*
X79409Y-58425D01*
X78976Y-58518D02*
X79040Y-58518D01*
X79133Y-58425D02*
X78976Y-58518D01*
X79040Y-58518D02*
X79133Y-58425D01*
G54D24*
X73661Y-57362D02*
X73740Y-57440D01*
X74094Y-57440D02*
X74173Y-57440D01*
X74173Y-57440D02*
X74409Y-57677D01*
X74409Y-57677D02*
X74409Y-57874D01*
X73661Y-56996D02*
X73661Y-57362D01*
X73740Y-57440D02*
X74094Y-57440D01*
X74409Y-57874D02*
X74409Y-58110D01*
X74409Y-58110D02*
X74724Y-58425D01*
X74724Y-58425D02*
X74763Y-58425D01*
G54D23*
X76181Y-57307D02*
X76181Y-58425D01*
G54D25*
X76181Y-58425D02*
X76653Y-58425D01*
X79842Y-58425D02*
X80885Y-58425D01*
X79409Y-58425D02*
X79842Y-58425D01*
X80885Y-58425D02*
X80924Y-58385D01*
X77874Y-58425D02*
X78070Y-58425D01*
X78070Y-58425D02*
X79409Y-58425D01*
X76653Y-58425D02*
X77598Y-58425D01*
X77598Y-58425D02*
X77874Y-58425D01*
X77874Y-58425D02*
X77952Y-58425D01*
G54D23*
X77696Y-58425D02*
X77952Y-58425D01*
X77598Y-58522D02*
X77696Y-58425D01*
X76968Y-58522D02*
X77598Y-58522D01*
X79645Y-57874D02*
X78818Y-57874D01*
X78818Y-57874D02*
X78818Y-57874D01*
X85606Y-56165D02*
X86035Y-56165D01*
X84803Y-56968D02*
X85606Y-56165D01*
X84803Y-57480D02*
X84803Y-56968D01*
X84685Y-57598D02*
X84803Y-57480D01*
X85393Y-57677D02*
X86535Y-57677D01*
X87035Y-57177D02*
X87035Y-57165D01*
X86535Y-57677D02*
X87035Y-57177D01*
X78070Y-55275D02*
X79015Y-55275D01*
X78031Y-55314D02*
X78070Y-55275D01*
X85409Y-58165D02*
X86035Y-58165D01*
X85393Y-58149D02*
X85409Y-58165D01*
X74161Y-55996D02*
X73661Y-55996D01*
X74409Y-55748D02*
X74161Y-55996D01*
X74409Y-55118D02*
X74409Y-55748D01*
X74645Y-54881D02*
X74409Y-55118D01*
X75157Y-54881D02*
X74645Y-54881D01*
X86035Y-57165D02*
X85275Y-57165D01*
X85039Y-57401D02*
X85275Y-57165D01*
X85039Y-58464D02*
X85039Y-57401D01*
X85000Y-58503D02*
X85039Y-58464D01*
X85826Y-57165D02*
X86035Y-57165D01*
X75393Y-56732D02*
X75590Y-56732D01*
X75118Y-57007D02*
X75393Y-56732D01*
X74488Y-57007D02*
X75118Y-57007D01*
X77007Y-55708D02*
X77047Y-55748D01*
X76519Y-55220D02*
X77007Y-55708D01*
X76519Y-54376D02*
X76519Y-55220D01*
X77047Y-55748D02*
X77047Y-56259D01*
X74177Y-54996D02*
X74685Y-54488D01*
X74177Y-54996D02*
X73661Y-54996D01*
X76181Y-56205D02*
X76181Y-56707D01*
X76181Y-56707D02*
X76196Y-56692D01*
X76196Y-56692D02*
X76889Y-56692D01*
X76889Y-56692D02*
X77086Y-56889D01*
X77086Y-56889D02*
X77086Y-57401D01*
X77637Y-57125D02*
X77598Y-57125D01*
X77637Y-56496D02*
X77637Y-57125D01*
X78188Y-56496D02*
X77992Y-56496D01*
X77992Y-56496D02*
X77637Y-56496D01*
X81850Y-54133D02*
X81836Y-54120D01*
X81836Y-54120D02*
X81262Y-54120D01*
X81262Y-54120D02*
X80552Y-54120D01*
X80552Y-54120D02*
X80551Y-54118D01*
X81262Y-56246D02*
X81836Y-56246D01*
X81836Y-56246D02*
X81850Y-56259D01*
X80551Y-56284D02*
X80881Y-56284D01*
X80919Y-56246D02*
X81262Y-56246D01*
X80881Y-56284D02*
X80919Y-56246D01*
X85866Y-53818D02*
X86574Y-54527D01*
X86574Y-54527D02*
X86574Y-55354D01*
G54D25*
X82362Y-53818D02*
X82362Y-53661D01*
X82362Y-53661D02*
X82362Y-54566D01*
X82362Y-54566D02*
X82362Y-55629D01*
X82362Y-55629D02*
X82362Y-55903D01*
G54D24*
X80551Y-53518D02*
X79591Y-53518D01*
X79094Y-54015D02*
X76771Y-54015D01*
X79591Y-53518D02*
X79094Y-54015D01*
X81262Y-53620D02*
X80942Y-53620D01*
X80841Y-53518D02*
X80551Y-53518D01*
X80942Y-53620D02*
X80841Y-53518D01*
X81262Y-53620D02*
X82362Y-53620D01*
G54D25*
X82362Y-53818D02*
X82362Y-53582D01*
G54D24*
X82362Y-53620D02*
X82362Y-53582D01*
X81262Y-55746D02*
X82204Y-55746D01*
X82204Y-55746D02*
X82362Y-55903D01*
X80551Y-55684D02*
X80841Y-55684D01*
X80903Y-55746D02*
X81262Y-55746D01*
X80841Y-55684D02*
X80903Y-55746D01*
G54D23*
X85984Y-59212D02*
X86535Y-58661D01*
X86559Y-58165D02*
X87035Y-58165D01*
X86535Y-58188D02*
X86559Y-58165D01*
X86535Y-58661D02*
X86535Y-58188D01*
X82224Y-58385D02*
X82224Y-59114D01*
X82224Y-59114D02*
X82322Y-59212D01*
X79763Y-59118D02*
X79660Y-59118D01*
X79566Y-59212D02*
X79763Y-59118D01*
X79660Y-59118D02*
X79566Y-59212D01*
X82224Y-58385D02*
X82224Y-58129D01*
X82362Y-57992D02*
X82224Y-58385D01*
X82224Y-58129D02*
X82362Y-57992D01*
G54D25*
X80551Y-59212D02*
X81850Y-59212D01*
X81850Y-59212D02*
X82322Y-59212D01*
G54D23*
X82322Y-59212D02*
X85984Y-59212D01*
X85984Y-59212D02*
X85988Y-59212D01*
X80433Y-59212D02*
X80551Y-59212D01*
X75000Y-59370D02*
X75000Y-59212D01*
X75101Y-59471D02*
X75000Y-59370D01*
X79763Y-59118D02*
X79906Y-59118D01*
X79906Y-59118D02*
X80000Y-59212D01*
X78976Y-59118D02*
X78833Y-59118D01*
X78833Y-59118D02*
X78740Y-59212D01*
X76181Y-55605D02*
X75841Y-55605D01*
X75841Y-55605D02*
X75551Y-55314D01*
G54D25*
X73661Y-57996D02*
X73661Y-58031D01*
X74842Y-59212D02*
X75000Y-59212D01*
X73661Y-58031D02*
X74842Y-59212D01*
G54D23*
X75314Y-55535D02*
X74803Y-55535D01*
X75314Y-55535D02*
X75330Y-55535D01*
X76259Y-54606D02*
X76259Y-54376D01*
X75330Y-55535D02*
X75551Y-55314D01*
X75551Y-55314D02*
X75629Y-55236D01*
X75629Y-55236D02*
X76259Y-54606D01*
G54D25*
X76929Y-59212D02*
X78740Y-59212D01*
X78740Y-59212D02*
X80000Y-59212D01*
X80000Y-59212D02*
X80551Y-59212D01*
X82362Y-59173D02*
X82362Y-56496D01*
X82362Y-56496D02*
X82362Y-55903D01*
X82322Y-59212D02*
X82362Y-59173D01*
G54D23*
X76968Y-59114D02*
X77107Y-59114D01*
X77107Y-59114D02*
X77204Y-59212D01*
G54D25*
X76653Y-59212D02*
X76929Y-59212D01*
X76929Y-59212D02*
X77204Y-59212D01*
G54D23*
X76259Y-54133D02*
X76377Y-54015D01*
X76377Y-54015D02*
X76771Y-54015D01*
X76992Y-54237D02*
X77244Y-54237D01*
X77244Y-55078D02*
X77244Y-54237D01*
X76771Y-54015D02*
X76992Y-54237D01*
X76259Y-54376D02*
X76259Y-54133D01*
X75999Y-53873D02*
X75999Y-53576D01*
X76259Y-54133D02*
X75999Y-53873D01*
X77834Y-55866D02*
X77677Y-55866D01*
X77244Y-55354D02*
X77244Y-55078D01*
X77677Y-55866D02*
X77244Y-55354D01*
X77834Y-55866D02*
X78203Y-55866D01*
X75000Y-59291D02*
X75000Y-59212D01*
X75000Y-59212D02*
X75000Y-59291D01*
X75000Y-59291D02*
X75000Y-59212D01*
G54D25*
X75000Y-59212D02*
X76653Y-59212D01*
G54D23*
X78050Y-57856D02*
X78050Y-57540D01*
X79606Y-57204D02*
X79606Y-56633D01*
X79409Y-57401D02*
X79606Y-57204D01*
X78188Y-57401D02*
X79409Y-57401D01*
X78050Y-57540D02*
X78188Y-57401D01*
G54D24*
X80551Y-56747D02*
X79720Y-56747D01*
X79720Y-56747D02*
X79606Y-56633D01*
X81262Y-56746D02*
X80552Y-56746D01*
X80552Y-56746D02*
X80551Y-56747D01*
X80551Y-54581D02*
X79630Y-54581D01*
X79630Y-54581D02*
X79606Y-54606D01*
G54D26*
X79606Y-54606D02*
X79606Y-56633D01*
G54D24*
X81262Y-54620D02*
X80919Y-54620D01*
X80881Y-54581D02*
X80551Y-54581D01*
X80919Y-54620D02*
X80881Y-54581D01*
G54D23*
X81262Y-55120D02*
X80907Y-55120D01*
X80907Y-55120D02*
X80905Y-55118D01*
X83462Y-55746D02*
X83108Y-55746D01*
X81848Y-55120D02*
X81262Y-55120D01*
X81850Y-55118D02*
X81848Y-55120D01*
X82874Y-55511D02*
X82874Y-55118D01*
X83108Y-55746D02*
X82874Y-55511D01*
X83460Y-55748D02*
X83462Y-55746D01*
X80551Y-55181D02*
X80841Y-55181D01*
X80841Y-55181D02*
X80905Y-55118D01*
X80905Y-55118D02*
X80903Y-55120D01*
G54D25*
X83462Y-55944D02*
X83462Y-55746D01*
G54D23*
X83462Y-56246D02*
X83462Y-55944D01*
X83462Y-57246D02*
X83462Y-56746D01*
X83462Y-56746D02*
X83462Y-56246D01*
X83462Y-55746D02*
X83464Y-55748D01*
X83464Y-55748D02*
X83464Y-58110D01*
G54D25*
X83462Y-55903D02*
X83462Y-56403D01*
X83462Y-56403D02*
X83462Y-56903D01*
X83462Y-56903D02*
X83462Y-57403D01*
X83462Y-57403D02*
X83462Y-57403D01*
X83462Y-57403D02*
X83462Y-58114D01*
G54D23*
X83462Y-56403D02*
X83462Y-56903D01*
X83462Y-56903D02*
X83462Y-57403D01*
X83462Y-54120D02*
X83462Y-53620D01*
X83462Y-54620D02*
X83462Y-54120D01*
X83462Y-55120D02*
X83462Y-54620D01*
X80551Y-57347D02*
X80802Y-57347D01*
X80903Y-57246D02*
X81262Y-57246D01*
X80802Y-57347D02*
X80903Y-57246D01*
G54D25*
X83462Y-54921D02*
X83462Y-55120D01*
X83462Y-53620D02*
X83462Y-53923D01*
X83462Y-54423D02*
X83462Y-54921D01*
X83462Y-53923D02*
X83462Y-54423D01*
X83462Y-54921D02*
X83462Y-54923D01*
X83462Y-54923D02*
X83499Y-54885D01*
X83499Y-54885D02*
X84094Y-54885D01*
G54D23*
X81262Y-57246D02*
X81690Y-57246D01*
X84094Y-56889D02*
X84094Y-54885D01*
X81850Y-57086D02*
X81850Y-56889D01*
X81690Y-57246D02*
X81850Y-57086D01*
G54D25*
X84094Y-54885D02*
X85037Y-54885D01*
G54D23*
X78425Y-57024D02*
X78604Y-57024D01*
X78803Y-56825D02*
X78803Y-56456D01*
X78604Y-57024D02*
X78803Y-56825D01*
X78803Y-56535D02*
X78803Y-55866D01*
X78803Y-56629D02*
X78803Y-56535D01*
G54D10*
G36*
X78261Y-55876D02*
X78253Y-55876D01*
X78253Y-55884D01*
X78153Y-55884D01*
X78153Y-55876D01*
X78146Y-55876D01*
X78146Y-55776D01*
X78153Y-55776D01*
X78153Y-55768D01*
X78253Y-55768D01*
X78253Y-55776D01*
X78261Y-55776D01*
X78261Y-55876D01*
X78261Y-55876D01*
G37*
G54D23*
X78261Y-55876D02*
X78253Y-55876D01*
X78253Y-55884D01*
X78153Y-55884D01*
X78153Y-55876D01*
X78146Y-55876D01*
X78146Y-55776D01*
X78153Y-55776D01*
X78153Y-55768D01*
X78253Y-55768D01*
X78253Y-55776D01*
X78261Y-55776D01*
X78261Y-55876D01*
G54D10*
G36*
X80609Y-53568D02*
X80601Y-53568D01*
X80601Y-53576D01*
X80501Y-53576D01*
X80501Y-53568D01*
X80138Y-53568D01*
X80076Y-53631D01*
X80076Y-53693D01*
X80114Y-53785D01*
X80182Y-53854D01*
X80156Y-53880D01*
X80126Y-53953D01*
X80126Y-54033D01*
X80126Y-54281D01*
X79979Y-54281D01*
X79959Y-54252D01*
X79797Y-54144D01*
X79606Y-54106D01*
X79414Y-54144D01*
X79252Y-54252D01*
X79144Y-54414D01*
X79106Y-54606D01*
X79106Y-54907D01*
X79090Y-54900D01*
X78941Y-54900D01*
X78803Y-54957D01*
X78735Y-55025D01*
X78272Y-55025D01*
X78244Y-54997D01*
X78106Y-54940D01*
X77957Y-54939D01*
X77819Y-54996D01*
X77713Y-55102D01*
X77656Y-55240D01*
X77656Y-55389D01*
X77713Y-55527D01*
X77721Y-55535D01*
X77687Y-55568D01*
X77687Y-55831D01*
X77695Y-55831D01*
X77695Y-55931D01*
X77687Y-55931D01*
X77687Y-55938D01*
X77587Y-55938D01*
X77587Y-55931D01*
X77579Y-55931D01*
X77579Y-55831D01*
X77587Y-55831D01*
X77587Y-55568D01*
X77525Y-55506D01*
X77462Y-55506D01*
X77362Y-55506D01*
X77270Y-55544D01*
X77232Y-55583D01*
X77224Y-55571D01*
X77184Y-55531D01*
X76769Y-55117D01*
X76769Y-54618D01*
X76799Y-54546D01*
X76799Y-54466D01*
X76799Y-54206D01*
X76769Y-54133D01*
X76713Y-54076D01*
X76639Y-54046D01*
X76560Y-54046D01*
X76493Y-54046D01*
X76481Y-54034D01*
X76389Y-53996D01*
X76362Y-53996D01*
X76299Y-54058D01*
X76299Y-54103D01*
X76270Y-54132D01*
X76259Y-54158D01*
X76249Y-54133D01*
X76219Y-54103D01*
X76219Y-54058D01*
X76157Y-53996D01*
X76130Y-53996D01*
X76038Y-54034D01*
X76026Y-54046D01*
X75959Y-54046D01*
X75959Y-53893D01*
X75959Y-53626D01*
X75732Y-53626D01*
X75669Y-53688D01*
X75669Y-53656D01*
X75669Y-53756D01*
X75708Y-53848D01*
X75778Y-53918D01*
X75870Y-53956D01*
X75897Y-53956D01*
X75959Y-53893D01*
X75959Y-54046D01*
X75880Y-54046D01*
X75806Y-54076D01*
X75750Y-54132D01*
X75719Y-54206D01*
X75719Y-54285D01*
X75719Y-54545D01*
X75750Y-54619D01*
X75806Y-54675D01*
X75879Y-54706D01*
X75959Y-54706D01*
X76026Y-54706D01*
X76038Y-54718D01*
X76130Y-54756D01*
X76157Y-54756D01*
X76219Y-54693D01*
X76219Y-54649D01*
X76249Y-54619D01*
X76259Y-54594D01*
X76269Y-54618D01*
X76269Y-55220D01*
X76275Y-55248D01*
X76231Y-55293D01*
X76231Y-55555D01*
X76238Y-55555D01*
X76238Y-55655D01*
X76231Y-55655D01*
X76231Y-55663D01*
X76131Y-55663D01*
X76131Y-55655D01*
X76131Y-55555D01*
X76131Y-55293D01*
X76068Y-55230D01*
X76005Y-55230D01*
X75906Y-55230D01*
X75814Y-55268D01*
X75744Y-55339D01*
X75706Y-55431D01*
X75706Y-55493D01*
X75768Y-55555D01*
X76131Y-55555D01*
X76131Y-55655D01*
X75768Y-55655D01*
X75706Y-55718D01*
X75706Y-55780D01*
X75744Y-55871D01*
X75812Y-55940D01*
X75786Y-55967D01*
X75756Y-56040D01*
X75756Y-56120D01*
X75756Y-56370D01*
X75768Y-56400D01*
X75665Y-56357D01*
X75516Y-56357D01*
X75381Y-56412D01*
X75381Y-56397D01*
X75306Y-56213D01*
X75165Y-56072D01*
X75102Y-56046D01*
X75132Y-56046D01*
X75231Y-56046D01*
X75323Y-56007D01*
X75393Y-55937D01*
X75431Y-55845D01*
X75431Y-55608D01*
X75369Y-55546D01*
X74931Y-55546D01*
X74931Y-55553D01*
X74831Y-55553D01*
X74831Y-55546D01*
X74824Y-55546D01*
X74824Y-55446D01*
X74831Y-55446D01*
X74831Y-55438D01*
X74931Y-55438D01*
X74931Y-55446D01*
X75369Y-55446D01*
X75431Y-55383D01*
X75431Y-55146D01*
X75429Y-55140D01*
X75475Y-55094D01*
X75532Y-54956D01*
X75532Y-54807D01*
X75475Y-54669D01*
X75370Y-54564D01*
X75232Y-54506D01*
X75083Y-54506D01*
X75060Y-54516D01*
X75060Y-54413D01*
X75003Y-54276D01*
X74897Y-54170D01*
X74759Y-54113D01*
X74610Y-54113D01*
X74472Y-54170D01*
X74367Y-54275D01*
X74310Y-54413D01*
X74310Y-54509D01*
X74252Y-54567D01*
X74201Y-54546D01*
X74121Y-54546D01*
X73251Y-54546D01*
X73251Y-54511D01*
X73385Y-54511D01*
X73407Y-54506D01*
X73428Y-54506D01*
X73713Y-54449D01*
X73715Y-54449D01*
X73794Y-54416D01*
X74035Y-54255D01*
X74036Y-54255D01*
X74097Y-54194D01*
X74259Y-53951D01*
X74292Y-53872D01*
X74292Y-53871D01*
X74349Y-53586D01*
X74349Y-53563D01*
X74353Y-53543D01*
X74353Y-53408D01*
X75669Y-53408D01*
X75669Y-53495D01*
X75669Y-53463D01*
X75732Y-53526D01*
X75959Y-53526D01*
X75959Y-53518D01*
X76039Y-53518D01*
X76039Y-53526D01*
X76057Y-53526D01*
X76057Y-53626D01*
X76039Y-53626D01*
X76039Y-53893D01*
X76102Y-53956D01*
X76129Y-53956D01*
X76221Y-53918D01*
X76291Y-53848D01*
X76293Y-53843D01*
X76326Y-53875D01*
X76399Y-53906D01*
X76479Y-53906D01*
X76639Y-53906D01*
X76712Y-53876D01*
X76756Y-53832D01*
X76771Y-53832D01*
X76924Y-53832D01*
X76992Y-53900D01*
X77129Y-53957D01*
X77278Y-53957D01*
X77416Y-53900D01*
X77485Y-53832D01*
X78577Y-53832D01*
X78645Y-53900D01*
X78783Y-53957D01*
X78932Y-53957D01*
X79070Y-53900D01*
X79175Y-53795D01*
X79233Y-53657D01*
X79233Y-53508D01*
X79192Y-53408D01*
X80078Y-53408D01*
X80138Y-53468D01*
X80501Y-53468D01*
X80501Y-53461D01*
X80601Y-53461D01*
X80601Y-53468D01*
X80609Y-53468D01*
X80609Y-53568D01*
X80609Y-53568D01*
G37*
G54D23*
X80609Y-53568D02*
X80601Y-53568D01*
X80601Y-53576D01*
X80501Y-53576D01*
X80501Y-53568D01*
X80138Y-53568D01*
X80076Y-53631D01*
X80076Y-53693D01*
X80114Y-53785D01*
X80182Y-53854D01*
X80156Y-53880D01*
X80126Y-53953D01*
X80126Y-54033D01*
X80126Y-54281D01*
X79979Y-54281D01*
X79959Y-54252D01*
X79797Y-54144D01*
X79606Y-54106D01*
X79414Y-54144D01*
X79252Y-54252D01*
X79144Y-54414D01*
X79106Y-54606D01*
X79106Y-54907D01*
X79090Y-54900D01*
X78941Y-54900D01*
X78803Y-54957D01*
X78735Y-55025D01*
X78272Y-55025D01*
X78244Y-54997D01*
X78106Y-54940D01*
X77957Y-54939D01*
X77819Y-54996D01*
X77713Y-55102D01*
X77656Y-55240D01*
X77656Y-55389D01*
X77713Y-55527D01*
X77721Y-55535D01*
X77687Y-55568D01*
X77687Y-55831D01*
X77695Y-55831D01*
X77695Y-55931D01*
X77687Y-55931D01*
X77687Y-55938D01*
X77587Y-55938D01*
X77587Y-55931D01*
X77579Y-55931D01*
X77579Y-55831D01*
X77587Y-55831D01*
X77587Y-55568D01*
X77525Y-55506D01*
X77462Y-55506D01*
X77362Y-55506D01*
X77270Y-55544D01*
X77232Y-55583D01*
X77224Y-55571D01*
X77184Y-55531D01*
X76769Y-55117D01*
X76769Y-54618D01*
X76799Y-54546D01*
X76799Y-54466D01*
X76799Y-54206D01*
X76769Y-54133D01*
X76713Y-54076D01*
X76639Y-54046D01*
X76560Y-54046D01*
X76493Y-54046D01*
X76481Y-54034D01*
X76389Y-53996D01*
X76362Y-53996D01*
X76299Y-54058D01*
X76299Y-54103D01*
X76270Y-54132D01*
X76259Y-54158D01*
X76249Y-54133D01*
X76219Y-54103D01*
X76219Y-54058D01*
X76157Y-53996D01*
X76130Y-53996D01*
X76038Y-54034D01*
X76026Y-54046D01*
X75959Y-54046D01*
X75959Y-53893D01*
X75959Y-53626D01*
X75732Y-53626D01*
X75669Y-53688D01*
X75669Y-53656D01*
X75669Y-53756D01*
X75708Y-53848D01*
X75778Y-53918D01*
X75870Y-53956D01*
X75897Y-53956D01*
X75959Y-53893D01*
X75959Y-54046D01*
X75880Y-54046D01*
X75806Y-54076D01*
X75750Y-54132D01*
X75719Y-54206D01*
X75719Y-54285D01*
X75719Y-54545D01*
X75750Y-54619D01*
X75806Y-54675D01*
X75879Y-54706D01*
X75959Y-54706D01*
X76026Y-54706D01*
X76038Y-54718D01*
X76130Y-54756D01*
X76157Y-54756D01*
X76219Y-54693D01*
X76219Y-54649D01*
X76249Y-54619D01*
X76259Y-54594D01*
X76269Y-54618D01*
X76269Y-55220D01*
X76275Y-55248D01*
X76231Y-55293D01*
X76231Y-55555D01*
X76238Y-55555D01*
X76238Y-55655D01*
X76231Y-55655D01*
X76231Y-55663D01*
X76131Y-55663D01*
X76131Y-55655D01*
X76131Y-55555D01*
X76131Y-55293D01*
X76068Y-55230D01*
X76005Y-55230D01*
X75906Y-55230D01*
X75814Y-55268D01*
X75744Y-55339D01*
X75706Y-55431D01*
X75706Y-55493D01*
X75768Y-55555D01*
X76131Y-55555D01*
X76131Y-55655D01*
X75768Y-55655D01*
X75706Y-55718D01*
X75706Y-55780D01*
X75744Y-55871D01*
X75812Y-55940D01*
X75786Y-55967D01*
X75756Y-56040D01*
X75756Y-56120D01*
X75756Y-56370D01*
X75768Y-56400D01*
X75665Y-56357D01*
X75516Y-56357D01*
X75381Y-56412D01*
X75381Y-56397D01*
X75306Y-56213D01*
X75165Y-56072D01*
X75102Y-56046D01*
X75132Y-56046D01*
X75231Y-56046D01*
X75323Y-56007D01*
X75393Y-55937D01*
X75431Y-55845D01*
X75431Y-55608D01*
X75369Y-55546D01*
X74931Y-55546D01*
X74931Y-55553D01*
X74831Y-55553D01*
X74831Y-55546D01*
X74824Y-55546D01*
X74824Y-55446D01*
X74831Y-55446D01*
X74831Y-55438D01*
X74931Y-55438D01*
X74931Y-55446D01*
X75369Y-55446D01*
X75431Y-55383D01*
X75431Y-55146D01*
X75429Y-55140D01*
X75475Y-55094D01*
X75532Y-54956D01*
X75532Y-54807D01*
X75475Y-54669D01*
X75370Y-54564D01*
X75232Y-54506D01*
X75083Y-54506D01*
X75060Y-54516D01*
X75060Y-54413D01*
X75003Y-54276D01*
X74897Y-54170D01*
X74759Y-54113D01*
X74610Y-54113D01*
X74472Y-54170D01*
X74367Y-54275D01*
X74310Y-54413D01*
X74310Y-54509D01*
X74252Y-54567D01*
X74201Y-54546D01*
X74121Y-54546D01*
X73251Y-54546D01*
X73251Y-54511D01*
X73385Y-54511D01*
X73407Y-54506D01*
X73428Y-54506D01*
X73713Y-54449D01*
X73715Y-54449D01*
X73794Y-54416D01*
X74035Y-54255D01*
X74036Y-54255D01*
X74097Y-54194D01*
X74259Y-53951D01*
X74292Y-53872D01*
X74292Y-53871D01*
X74349Y-53586D01*
X74349Y-53563D01*
X74353Y-53543D01*
X74353Y-53408D01*
X75669Y-53408D01*
X75669Y-53495D01*
X75669Y-53463D01*
X75732Y-53526D01*
X75959Y-53526D01*
X75959Y-53518D01*
X76039Y-53518D01*
X76039Y-53526D01*
X76057Y-53526D01*
X76057Y-53626D01*
X76039Y-53626D01*
X76039Y-53893D01*
X76102Y-53956D01*
X76129Y-53956D01*
X76221Y-53918D01*
X76291Y-53848D01*
X76293Y-53843D01*
X76326Y-53875D01*
X76399Y-53906D01*
X76479Y-53906D01*
X76639Y-53906D01*
X76712Y-53876D01*
X76756Y-53832D01*
X76771Y-53832D01*
X76924Y-53832D01*
X76992Y-53900D01*
X77129Y-53957D01*
X77278Y-53957D01*
X77416Y-53900D01*
X77485Y-53832D01*
X78577Y-53832D01*
X78645Y-53900D01*
X78783Y-53957D01*
X78932Y-53957D01*
X79070Y-53900D01*
X79175Y-53795D01*
X79233Y-53657D01*
X79233Y-53508D01*
X79192Y-53408D01*
X80078Y-53408D01*
X80138Y-53468D01*
X80501Y-53468D01*
X80501Y-53461D01*
X80601Y-53461D01*
X80601Y-53468D01*
X80609Y-53468D01*
X80609Y-53568D01*
G54D10*
G36*
X80609Y-55734D02*
X80601Y-55734D01*
X80601Y-55742D01*
X80501Y-55742D01*
X80501Y-55734D01*
X80493Y-55734D01*
X80493Y-55634D01*
X80501Y-55634D01*
X80501Y-55626D01*
X80601Y-55626D01*
X80601Y-55634D01*
X80609Y-55634D01*
X80609Y-55734D01*
X80609Y-55734D01*
G37*
G54D23*
X80609Y-55734D02*
X80601Y-55734D01*
X80601Y-55742D01*
X80501Y-55742D01*
X80501Y-55734D01*
X80493Y-55734D01*
X80493Y-55634D01*
X80501Y-55634D01*
X80501Y-55626D01*
X80601Y-55626D01*
X80601Y-55634D01*
X80609Y-55634D01*
X80609Y-55734D01*
G54D10*
G36*
X87378Y-55801D02*
X87319Y-55741D01*
X87135Y-55665D01*
X86936Y-55665D01*
X86752Y-55741D01*
X86611Y-55881D01*
X86535Y-56065D01*
X86535Y-56125D01*
X86535Y-55825D01*
X86505Y-55752D01*
X86448Y-55695D01*
X86375Y-55665D01*
X86295Y-55665D01*
X85695Y-55665D01*
X85622Y-55695D01*
X85565Y-55751D01*
X85535Y-55825D01*
X85535Y-55904D01*
X85535Y-55929D01*
X85510Y-55934D01*
X85429Y-55988D01*
X85429Y-55988D01*
X84626Y-56791D01*
X84572Y-56872D01*
X84553Y-56968D01*
X84553Y-57247D01*
X84472Y-57280D01*
X84367Y-57385D01*
X84310Y-57523D01*
X84309Y-57672D01*
X84366Y-57810D01*
X84472Y-57916D01*
X84610Y-57973D01*
X84759Y-57973D01*
X84789Y-57961D01*
X84789Y-58185D01*
X84787Y-58185D01*
X84682Y-58291D01*
X84625Y-58429D01*
X84624Y-58578D01*
X84681Y-58716D01*
X84787Y-58821D01*
X84925Y-58878D01*
X85074Y-58879D01*
X85212Y-58822D01*
X85317Y-58716D01*
X85374Y-58578D01*
X85374Y-58524D01*
X85467Y-58524D01*
X85605Y-58467D01*
X85618Y-58455D01*
X85751Y-58588D01*
X85935Y-58665D01*
X86134Y-58665D01*
X86318Y-58589D01*
X86459Y-58448D01*
X86505Y-58336D01*
X86554Y-58453D01*
X86649Y-58480D01*
X86964Y-58165D01*
X86959Y-58159D01*
X87029Y-58089D01*
X87035Y-58094D01*
X87041Y-58089D01*
X87111Y-58159D01*
X87106Y-58165D01*
X87111Y-58170D01*
X87041Y-58241D01*
X87035Y-58236D01*
X86720Y-58551D01*
X86744Y-58635D01*
X86592Y-58737D01*
X86532Y-58797D01*
X86531Y-58799D01*
X86370Y-59040D01*
X86337Y-59119D01*
X86337Y-59120D01*
X86280Y-59405D01*
X86280Y-59427D01*
X86276Y-59448D01*
X86276Y-59583D01*
X82174Y-59583D01*
X82174Y-58855D01*
X82174Y-58317D01*
X82174Y-58217D01*
X82174Y-57680D01*
X82112Y-57617D01*
X81875Y-57617D01*
X81783Y-57655D01*
X81712Y-57725D01*
X81674Y-57817D01*
X81674Y-57917D01*
X81674Y-58155D01*
X81737Y-58217D01*
X82174Y-58217D01*
X82174Y-58317D01*
X81737Y-58317D01*
X81674Y-58380D01*
X81674Y-58618D01*
X81674Y-58717D01*
X81712Y-58809D01*
X81783Y-58879D01*
X81875Y-58917D01*
X82112Y-58917D01*
X82174Y-58855D01*
X82174Y-59583D01*
X80238Y-59583D01*
X80238Y-59293D01*
X80238Y-59231D01*
X80176Y-59168D01*
X79813Y-59168D01*
X79813Y-59431D01*
X79876Y-59493D01*
X79939Y-59493D01*
X80038Y-59493D01*
X80130Y-59455D01*
X80200Y-59385D01*
X80238Y-59293D01*
X80238Y-59583D01*
X79713Y-59583D01*
X79713Y-59431D01*
X79713Y-59168D01*
X79388Y-59168D01*
X79351Y-59168D01*
X79026Y-59168D01*
X79026Y-59431D01*
X79088Y-59493D01*
X79151Y-59493D01*
X79251Y-59493D01*
X79343Y-59455D01*
X79370Y-59428D01*
X79396Y-59455D01*
X79488Y-59493D01*
X79588Y-59493D01*
X79651Y-59493D01*
X79713Y-59431D01*
X79713Y-59583D01*
X78926Y-59583D01*
X78926Y-59431D01*
X78926Y-59168D01*
X78563Y-59168D01*
X78501Y-59231D01*
X78501Y-59293D01*
X78539Y-59385D01*
X78609Y-59455D01*
X78701Y-59493D01*
X78800Y-59493D01*
X78863Y-59493D01*
X78926Y-59431D01*
X78926Y-59583D01*
X74353Y-59583D01*
X74353Y-59448D01*
X74349Y-59428D01*
X74349Y-59405D01*
X74292Y-59120D01*
X74292Y-59119D01*
X74259Y-59040D01*
X74097Y-58797D01*
X74036Y-58737D01*
X74035Y-58736D01*
X73794Y-58575D01*
X73715Y-58542D01*
X73713Y-58542D01*
X73482Y-58496D01*
X73548Y-58496D01*
X73611Y-58433D01*
X73611Y-58396D01*
X73711Y-58396D01*
X73711Y-58433D01*
X73773Y-58496D01*
X74111Y-58496D01*
X74211Y-58496D01*
X74303Y-58457D01*
X74318Y-58443D01*
X74512Y-58637D01*
X74512Y-58637D01*
X74583Y-58685D01*
X74599Y-58708D01*
X74728Y-58794D01*
X74881Y-58825D01*
X76181Y-58825D01*
X76653Y-58825D01*
X77598Y-58825D01*
X77874Y-58825D01*
X77952Y-58825D01*
X78070Y-58825D01*
X78566Y-58825D01*
X78539Y-58852D01*
X78501Y-58944D01*
X78501Y-59006D01*
X78563Y-59068D01*
X78926Y-59068D01*
X78926Y-59061D01*
X79026Y-59061D01*
X79026Y-59068D01*
X79351Y-59068D01*
X79388Y-59068D01*
X79713Y-59068D01*
X79713Y-59061D01*
X79813Y-59061D01*
X79813Y-59068D01*
X80176Y-59068D01*
X80238Y-59006D01*
X80238Y-58944D01*
X80200Y-58852D01*
X80173Y-58825D01*
X80499Y-58825D01*
X80511Y-58837D01*
X80584Y-58867D01*
X80664Y-58867D01*
X81264Y-58867D01*
X81337Y-58837D01*
X81394Y-58781D01*
X81424Y-58707D01*
X81424Y-58628D01*
X81424Y-57828D01*
X81394Y-57754D01*
X81338Y-57698D01*
X81264Y-57667D01*
X81185Y-57667D01*
X80826Y-57667D01*
X80889Y-57641D01*
X80945Y-57585D01*
X80954Y-57563D01*
X80972Y-57571D01*
X81051Y-57571D01*
X81551Y-57571D01*
X81625Y-57540D01*
X81670Y-57496D01*
X81690Y-57496D01*
X81786Y-57477D01*
X81867Y-57422D01*
X82027Y-57263D01*
X82027Y-57263D01*
X82027Y-57263D01*
X82059Y-57214D01*
X82067Y-57202D01*
X82067Y-57202D01*
X82168Y-57102D01*
X82225Y-56964D01*
X82225Y-56815D01*
X82168Y-56677D01*
X82065Y-56574D01*
X82168Y-56472D01*
X82225Y-56334D01*
X82225Y-56185D01*
X82168Y-56047D01*
X82063Y-55942D01*
X81925Y-55884D01*
X81776Y-55884D01*
X81762Y-55890D01*
X81762Y-55858D01*
X81699Y-55796D01*
X81312Y-55796D01*
X81312Y-55803D01*
X81212Y-55803D01*
X81212Y-55796D01*
X81204Y-55796D01*
X81204Y-55696D01*
X81212Y-55696D01*
X81212Y-55688D01*
X81312Y-55688D01*
X81312Y-55696D01*
X81699Y-55696D01*
X81762Y-55633D01*
X81762Y-55571D01*
X81724Y-55479D01*
X81710Y-55466D01*
X81775Y-55493D01*
X81924Y-55493D01*
X82062Y-55436D01*
X82168Y-55330D01*
X82225Y-55193D01*
X82225Y-55043D01*
X82168Y-54905D01*
X82063Y-54800D01*
X81925Y-54743D01*
X81776Y-54743D01*
X81712Y-54769D01*
X81712Y-54705D01*
X81712Y-54482D01*
X81775Y-54508D01*
X81924Y-54508D01*
X82062Y-54451D01*
X82168Y-54346D01*
X82225Y-54208D01*
X82225Y-54059D01*
X82168Y-53921D01*
X82063Y-53816D01*
X81925Y-53758D01*
X81776Y-53758D01*
X81762Y-53764D01*
X81762Y-53732D01*
X81699Y-53670D01*
X81312Y-53670D01*
X81312Y-53677D01*
X81212Y-53677D01*
X81212Y-53670D01*
X81204Y-53670D01*
X81204Y-53570D01*
X81212Y-53570D01*
X81212Y-53562D01*
X81312Y-53562D01*
X81312Y-53570D01*
X81699Y-53570D01*
X81762Y-53507D01*
X81762Y-53445D01*
X81746Y-53408D01*
X83031Y-53408D01*
X83012Y-53455D01*
X83012Y-53534D01*
X83012Y-53784D01*
X83042Y-53858D01*
X83054Y-53870D01*
X83042Y-53881D01*
X83012Y-53955D01*
X83012Y-54034D01*
X83012Y-54284D01*
X83042Y-54358D01*
X83054Y-54370D01*
X83042Y-54381D01*
X83012Y-54455D01*
X83012Y-54534D01*
X83012Y-54769D01*
X82948Y-54743D01*
X82799Y-54743D01*
X82661Y-54800D01*
X82556Y-54905D01*
X82499Y-55043D01*
X82498Y-55192D01*
X82555Y-55330D01*
X82624Y-55398D01*
X82624Y-55511D01*
X82643Y-55607D01*
X82697Y-55688D01*
X82931Y-55922D01*
X83012Y-55977D01*
X83042Y-55982D01*
X83042Y-55984D01*
X83054Y-55996D01*
X83042Y-56007D01*
X83012Y-56081D01*
X83012Y-56160D01*
X83012Y-56410D01*
X83042Y-56484D01*
X83054Y-56496D01*
X83042Y-56507D01*
X83012Y-56581D01*
X83012Y-56660D01*
X83012Y-56910D01*
X83042Y-56984D01*
X83054Y-56996D01*
X83042Y-57007D01*
X83012Y-57081D01*
X83012Y-57160D01*
X83012Y-57410D01*
X83042Y-57484D01*
X83062Y-57504D01*
X83062Y-57530D01*
X82904Y-57561D01*
X82711Y-57690D01*
X82707Y-57696D01*
X82666Y-57655D01*
X82574Y-57617D01*
X82337Y-57617D01*
X82274Y-57680D01*
X82274Y-58217D01*
X82282Y-58217D01*
X82282Y-58317D01*
X82274Y-58317D01*
X82274Y-58855D01*
X82337Y-58917D01*
X82574Y-58917D01*
X82666Y-58879D01*
X82736Y-58809D01*
X82774Y-58717D01*
X82774Y-58618D01*
X82774Y-58572D01*
X82904Y-58658D01*
X83131Y-58703D01*
X83797Y-58703D01*
X84024Y-58658D01*
X84217Y-58530D01*
X84345Y-58337D01*
X84391Y-58110D01*
X84345Y-57883D01*
X84217Y-57690D01*
X84024Y-57561D01*
X83862Y-57529D01*
X83862Y-57503D01*
X83881Y-57484D01*
X83912Y-57411D01*
X83912Y-57331D01*
X83912Y-57220D01*
X84019Y-57264D01*
X84168Y-57264D01*
X84306Y-57207D01*
X84412Y-57102D01*
X84469Y-56964D01*
X84469Y-56815D01*
X84412Y-56677D01*
X84344Y-56609D01*
X84344Y-55340D01*
X84479Y-55430D01*
X84706Y-55475D01*
X85372Y-55475D01*
X85599Y-55430D01*
X85791Y-55301D01*
X85920Y-55109D01*
X85965Y-54881D01*
X85920Y-54654D01*
X85791Y-54462D01*
X85599Y-54333D01*
X85372Y-54288D01*
X84706Y-54288D01*
X84479Y-54333D01*
X84286Y-54462D01*
X84270Y-54485D01*
X84094Y-54485D01*
X83912Y-54485D01*
X83912Y-54455D01*
X83881Y-54381D01*
X83870Y-54370D01*
X83881Y-54358D01*
X83912Y-54285D01*
X83912Y-54205D01*
X83912Y-53955D01*
X83881Y-53881D01*
X83870Y-53870D01*
X83881Y-53858D01*
X83912Y-53785D01*
X83912Y-53705D01*
X83912Y-53455D01*
X83892Y-53408D01*
X86276Y-53408D01*
X86276Y-53543D01*
X86280Y-53564D01*
X86280Y-53586D01*
X86337Y-53871D01*
X86337Y-53872D01*
X86370Y-53951D01*
X86531Y-54192D01*
X86532Y-54194D01*
X86592Y-54254D01*
X86835Y-54417D01*
X86914Y-54450D01*
X86915Y-54450D01*
X87200Y-54507D01*
X87224Y-54507D01*
X87244Y-54511D01*
X87378Y-54511D01*
X87378Y-55801D01*
X87378Y-55801D01*
G37*
G54D23*
X87378Y-55801D02*
X87319Y-55741D01*
X87135Y-55665D01*
X86936Y-55665D01*
X86752Y-55741D01*
X86611Y-55881D01*
X86535Y-56065D01*
X86535Y-56125D01*
X86535Y-55825D01*
X86505Y-55752D01*
X86448Y-55695D01*
X86375Y-55665D01*
X86295Y-55665D01*
X85695Y-55665D01*
X85622Y-55695D01*
X85565Y-55751D01*
X85535Y-55825D01*
X85535Y-55904D01*
X85535Y-55929D01*
X85510Y-55934D01*
X85429Y-55988D01*
X85429Y-55988D01*
X84626Y-56791D01*
X84572Y-56872D01*
X84553Y-56968D01*
X84553Y-57247D01*
X84472Y-57280D01*
X84367Y-57385D01*
X84310Y-57523D01*
X84309Y-57672D01*
X84366Y-57810D01*
X84472Y-57916D01*
X84610Y-57973D01*
X84759Y-57973D01*
X84789Y-57961D01*
X84789Y-58185D01*
X84787Y-58185D01*
X84682Y-58291D01*
X84625Y-58429D01*
X84624Y-58578D01*
X84681Y-58716D01*
X84787Y-58821D01*
X84925Y-58878D01*
X85074Y-58879D01*
X85212Y-58822D01*
X85317Y-58716D01*
X85374Y-58578D01*
X85374Y-58524D01*
X85467Y-58524D01*
X85605Y-58467D01*
X85618Y-58455D01*
X85751Y-58588D01*
X85935Y-58665D01*
X86134Y-58665D01*
X86318Y-58589D01*
X86459Y-58448D01*
X86505Y-58336D01*
X86554Y-58453D01*
X86649Y-58480D01*
X86964Y-58165D01*
X86959Y-58159D01*
X87029Y-58089D01*
X87035Y-58094D01*
X87041Y-58089D01*
X87111Y-58159D01*
X87106Y-58165D01*
X87111Y-58170D01*
X87041Y-58241D01*
X87035Y-58236D01*
X86720Y-58551D01*
X86744Y-58635D01*
X86592Y-58737D01*
X86532Y-58797D01*
X86531Y-58799D01*
X86370Y-59040D01*
X86337Y-59119D01*
X86337Y-59120D01*
X86280Y-59405D01*
X86280Y-59427D01*
X86276Y-59448D01*
X86276Y-59583D01*
X82174Y-59583D01*
X82174Y-58855D01*
X82174Y-58317D01*
X82174Y-58217D01*
X82174Y-57680D01*
X82112Y-57617D01*
X81875Y-57617D01*
X81783Y-57655D01*
X81712Y-57725D01*
X81674Y-57817D01*
X81674Y-57917D01*
X81674Y-58155D01*
X81737Y-58217D01*
X82174Y-58217D01*
X82174Y-58317D01*
X81737Y-58317D01*
X81674Y-58380D01*
X81674Y-58618D01*
X81674Y-58717D01*
X81712Y-58809D01*
X81783Y-58879D01*
X81875Y-58917D01*
X82112Y-58917D01*
X82174Y-58855D01*
X82174Y-59583D01*
X80238Y-59583D01*
X80238Y-59293D01*
X80238Y-59231D01*
X80176Y-59168D01*
X79813Y-59168D01*
X79813Y-59431D01*
X79876Y-59493D01*
X79939Y-59493D01*
X80038Y-59493D01*
X80130Y-59455D01*
X80200Y-59385D01*
X80238Y-59293D01*
X80238Y-59583D01*
X79713Y-59583D01*
X79713Y-59431D01*
X79713Y-59168D01*
X79388Y-59168D01*
X79351Y-59168D01*
X79026Y-59168D01*
X79026Y-59431D01*
X79088Y-59493D01*
X79151Y-59493D01*
X79251Y-59493D01*
X79343Y-59455D01*
X79370Y-59428D01*
X79396Y-59455D01*
X79488Y-59493D01*
X79588Y-59493D01*
X79651Y-59493D01*
X79713Y-59431D01*
X79713Y-59583D01*
X78926Y-59583D01*
X78926Y-59431D01*
X78926Y-59168D01*
X78563Y-59168D01*
X78501Y-59231D01*
X78501Y-59293D01*
X78539Y-59385D01*
X78609Y-59455D01*
X78701Y-59493D01*
X78800Y-59493D01*
X78863Y-59493D01*
X78926Y-59431D01*
X78926Y-59583D01*
X74353Y-59583D01*
X74353Y-59448D01*
X74349Y-59428D01*
X74349Y-59405D01*
X74292Y-59120D01*
X74292Y-59119D01*
X74259Y-59040D01*
X74097Y-58797D01*
X74036Y-58737D01*
X74035Y-58736D01*
X73794Y-58575D01*
X73715Y-58542D01*
X73713Y-58542D01*
X73482Y-58496D01*
X73548Y-58496D01*
X73611Y-58433D01*
X73611Y-58396D01*
X73711Y-58396D01*
X73711Y-58433D01*
X73773Y-58496D01*
X74111Y-58496D01*
X74211Y-58496D01*
X74303Y-58457D01*
X74318Y-58443D01*
X74512Y-58637D01*
X74512Y-58637D01*
X74583Y-58685D01*
X74599Y-58708D01*
X74728Y-58794D01*
X74881Y-58825D01*
X76181Y-58825D01*
X76653Y-58825D01*
X77598Y-58825D01*
X77874Y-58825D01*
X77952Y-58825D01*
X78070Y-58825D01*
X78566Y-58825D01*
X78539Y-58852D01*
X78501Y-58944D01*
X78501Y-59006D01*
X78563Y-59068D01*
X78926Y-59068D01*
X78926Y-59061D01*
X79026Y-59061D01*
X79026Y-59068D01*
X79351Y-59068D01*
X79388Y-59068D01*
X79713Y-59068D01*
X79713Y-59061D01*
X79813Y-59061D01*
X79813Y-59068D01*
X80176Y-59068D01*
X80238Y-59006D01*
X80238Y-58944D01*
X80200Y-58852D01*
X80173Y-58825D01*
X80499Y-58825D01*
X80511Y-58837D01*
X80584Y-58867D01*
X80664Y-58867D01*
X81264Y-58867D01*
X81337Y-58837D01*
X81394Y-58781D01*
X81424Y-58707D01*
X81424Y-58628D01*
X81424Y-57828D01*
X81394Y-57754D01*
X81338Y-57698D01*
X81264Y-57667D01*
X81185Y-57667D01*
X80826Y-57667D01*
X80889Y-57641D01*
X80945Y-57585D01*
X80954Y-57563D01*
X80972Y-57571D01*
X81051Y-57571D01*
X81551Y-57571D01*
X81625Y-57540D01*
X81670Y-57496D01*
X81690Y-57496D01*
X81786Y-57477D01*
X81867Y-57422D01*
X82027Y-57263D01*
X82027Y-57263D01*
X82027Y-57263D01*
X82059Y-57214D01*
X82067Y-57202D01*
X82067Y-57202D01*
X82168Y-57102D01*
X82225Y-56964D01*
X82225Y-56815D01*
X82168Y-56677D01*
X82065Y-56574D01*
X82168Y-56472D01*
X82225Y-56334D01*
X82225Y-56185D01*
X82168Y-56047D01*
X82063Y-55942D01*
X81925Y-55884D01*
X81776Y-55884D01*
X81762Y-55890D01*
X81762Y-55858D01*
X81699Y-55796D01*
X81312Y-55796D01*
X81312Y-55803D01*
X81212Y-55803D01*
X81212Y-55796D01*
X81204Y-55796D01*
X81204Y-55696D01*
X81212Y-55696D01*
X81212Y-55688D01*
X81312Y-55688D01*
X81312Y-55696D01*
X81699Y-55696D01*
X81762Y-55633D01*
X81762Y-55571D01*
X81724Y-55479D01*
X81710Y-55466D01*
X81775Y-55493D01*
X81924Y-55493D01*
X82062Y-55436D01*
X82168Y-55330D01*
X82225Y-55193D01*
X82225Y-55043D01*
X82168Y-54905D01*
X82063Y-54800D01*
X81925Y-54743D01*
X81776Y-54743D01*
X81712Y-54769D01*
X81712Y-54705D01*
X81712Y-54482D01*
X81775Y-54508D01*
X81924Y-54508D01*
X82062Y-54451D01*
X82168Y-54346D01*
X82225Y-54208D01*
X82225Y-54059D01*
X82168Y-53921D01*
X82063Y-53816D01*
X81925Y-53758D01*
X81776Y-53758D01*
X81762Y-53764D01*
X81762Y-53732D01*
X81699Y-53670D01*
X81312Y-53670D01*
X81312Y-53677D01*
X81212Y-53677D01*
X81212Y-53670D01*
X81204Y-53670D01*
X81204Y-53570D01*
X81212Y-53570D01*
X81212Y-53562D01*
X81312Y-53562D01*
X81312Y-53570D01*
X81699Y-53570D01*
X81762Y-53507D01*
X81762Y-53445D01*
X81746Y-53408D01*
X83031Y-53408D01*
X83012Y-53455D01*
X83012Y-53534D01*
X83012Y-53784D01*
X83042Y-53858D01*
X83054Y-53870D01*
X83042Y-53881D01*
X83012Y-53955D01*
X83012Y-54034D01*
X83012Y-54284D01*
X83042Y-54358D01*
X83054Y-54370D01*
X83042Y-54381D01*
X83012Y-54455D01*
X83012Y-54534D01*
X83012Y-54769D01*
X82948Y-54743D01*
X82799Y-54743D01*
X82661Y-54800D01*
X82556Y-54905D01*
X82499Y-55043D01*
X82498Y-55192D01*
X82555Y-55330D01*
X82624Y-55398D01*
X82624Y-55511D01*
X82643Y-55607D01*
X82697Y-55688D01*
X82931Y-55922D01*
X83012Y-55977D01*
X83042Y-55982D01*
X83042Y-55984D01*
X83054Y-55996D01*
X83042Y-56007D01*
X83012Y-56081D01*
X83012Y-56160D01*
X83012Y-56410D01*
X83042Y-56484D01*
X83054Y-56496D01*
X83042Y-56507D01*
X83012Y-56581D01*
X83012Y-56660D01*
X83012Y-56910D01*
X83042Y-56984D01*
X83054Y-56996D01*
X83042Y-57007D01*
X83012Y-57081D01*
X83012Y-57160D01*
X83012Y-57410D01*
X83042Y-57484D01*
X83062Y-57504D01*
X83062Y-57530D01*
X82904Y-57561D01*
X82711Y-57690D01*
X82707Y-57696D01*
X82666Y-57655D01*
X82574Y-57617D01*
X82337Y-57617D01*
X82274Y-57680D01*
X82274Y-58217D01*
X82282Y-58217D01*
X82282Y-58317D01*
X82274Y-58317D01*
X82274Y-58855D01*
X82337Y-58917D01*
X82574Y-58917D01*
X82666Y-58879D01*
X82736Y-58809D01*
X82774Y-58717D01*
X82774Y-58618D01*
X82774Y-58572D01*
X82904Y-58658D01*
X83131Y-58703D01*
X83797Y-58703D01*
X84024Y-58658D01*
X84217Y-58530D01*
X84345Y-58337D01*
X84391Y-58110D01*
X84345Y-57883D01*
X84217Y-57690D01*
X84024Y-57561D01*
X83862Y-57529D01*
X83862Y-57503D01*
X83881Y-57484D01*
X83912Y-57411D01*
X83912Y-57331D01*
X83912Y-57220D01*
X84019Y-57264D01*
X84168Y-57264D01*
X84306Y-57207D01*
X84412Y-57102D01*
X84469Y-56964D01*
X84469Y-56815D01*
X84412Y-56677D01*
X84344Y-56609D01*
X84344Y-55340D01*
X84479Y-55430D01*
X84706Y-55475D01*
X85372Y-55475D01*
X85599Y-55430D01*
X85791Y-55301D01*
X85920Y-55109D01*
X85965Y-54881D01*
X85920Y-54654D01*
X85791Y-54462D01*
X85599Y-54333D01*
X85372Y-54288D01*
X84706Y-54288D01*
X84479Y-54333D01*
X84286Y-54462D01*
X84270Y-54485D01*
X84094Y-54485D01*
X83912Y-54485D01*
X83912Y-54455D01*
X83881Y-54381D01*
X83870Y-54370D01*
X83881Y-54358D01*
X83912Y-54285D01*
X83912Y-54205D01*
X83912Y-53955D01*
X83881Y-53881D01*
X83870Y-53870D01*
X83881Y-53858D01*
X83912Y-53785D01*
X83912Y-53705D01*
X83912Y-53455D01*
X83892Y-53408D01*
X86276Y-53408D01*
X86276Y-53543D01*
X86280Y-53564D01*
X86280Y-53586D01*
X86337Y-53871D01*
X86337Y-53872D01*
X86370Y-53951D01*
X86531Y-54192D01*
X86532Y-54194D01*
X86592Y-54254D01*
X86835Y-54417D01*
X86914Y-54450D01*
X86915Y-54450D01*
X87200Y-54507D01*
X87224Y-54507D01*
X87244Y-54511D01*
X87378Y-54511D01*
X87378Y-55801D01*
M02*
