G04 (created by PCBNEW (2013-07-07 BZR 4022)-stable) date 07/07/2014 23:54:26*
%MOIN*%
G04 Gerber Fmt 3.4, Leading zero omitted, Abs format*
%FSLAX34Y34*%
G01*
G70*
G90*
G04 APERTURE LIST*
%ADD10C,0.0019685*%
%ADD11R,0.025574X0.086574*%
%ADD12R,0.086574X0.025574*%
%ADD13R,0.031474X0.047274*%
%ADD14R,0.052874X0.032874*%
%ADD15R,0.067874X0.067874*%
%ADD16C,0.067874*%
%ADD17R,0.0472441X0.110236*%
%ADD18R,0.107874X0.057874*%
%ADD19R,0.032874X0.052874*%
%ADD20O,0.149606X0.0866142*%
G04 APERTURE END LIST*
G54D10*
G54D11*
X79281Y-54363D03*
X78966Y-54363D03*
X78651Y-54363D03*
X78336Y-54363D03*
X78021Y-54363D03*
X77706Y-54363D03*
X77391Y-54363D03*
X77076Y-54363D03*
X77078Y-58129D03*
X79288Y-58129D03*
X78968Y-58129D03*
X78648Y-58129D03*
X78338Y-58129D03*
X78018Y-58129D03*
X77708Y-58129D03*
X77388Y-58129D03*
G54D12*
X76288Y-55147D03*
X76288Y-55461D03*
X76288Y-55777D03*
X76288Y-56091D03*
X76288Y-56407D03*
X76288Y-56721D03*
X76288Y-57037D03*
X76288Y-57351D03*
X80068Y-55149D03*
X80068Y-55459D03*
X80068Y-55779D03*
X80068Y-56089D03*
X80068Y-56399D03*
X80068Y-56719D03*
X80068Y-57039D03*
X80068Y-57359D03*
G54D13*
X75176Y-58639D03*
X75551Y-59471D03*
X75926Y-58639D03*
G54D14*
X76574Y-53558D03*
X76574Y-54158D03*
G54D15*
X74881Y-55496D03*
G54D16*
X74881Y-56496D03*
X74881Y-57496D03*
G54D17*
X79763Y-54212D03*
X80354Y-54212D03*
X80944Y-54212D03*
G54D18*
X73661Y-57996D03*
X73661Y-56996D03*
X73661Y-55996D03*
X73661Y-54996D03*
G54D14*
X75905Y-54158D03*
X75905Y-53558D03*
G54D19*
X77692Y-53582D03*
X78292Y-53582D03*
G54D14*
X76496Y-58873D03*
X76496Y-59473D03*
X79173Y-59473D03*
X79173Y-58873D03*
X77165Y-58873D03*
X77165Y-59473D03*
X77834Y-59473D03*
X77834Y-58873D03*
G54D19*
X76677Y-57874D03*
X76077Y-57874D03*
G54D14*
X78503Y-59473D03*
X78503Y-58873D03*
X74606Y-58715D03*
X74606Y-59315D03*
X75551Y-58174D03*
X75551Y-57574D03*
G54D20*
X85039Y-54881D03*
X83464Y-58110D03*
M02*
